<?xml version="1.0" encoding="UTF-8" standalone="no"?>
<!-- Created with Inkscape (http://www.inkscape.org/) -->

<svg
   xmlns:dc="http://purl.org/dc/elements/1.1/"
   xmlns:cc="http://creativecommons.org/ns#"
   xmlns:rdf="http://www.w3.org/1999/02/22-rdf-syntax-ns#"
   xmlns:svg="http://www.w3.org/2000/svg"
   xmlns="http://www.w3.org/2000/svg"
   xmlns:sodipodi="http://sodipodi.sourceforge.net/DTD/sodipodi-0.dtd"
   xmlns:inkscape="http://www.inkscape.org/namespaces/inkscape"
   width="210mm"
   height="297mm"
   viewBox="0 0 210 297"
   version="1.1"
   id="svg8"
   inkscape:version="0.92.1 r15371"
   sodipodi:docname="icons.svg">
  <defs
     id="defs2" />
  <sodipodi:namedview
     id="base"
     pagecolor="#ffffff"
     bordercolor="#666666"
     borderopacity="1.0"
     inkscape:pageopacity="0.0"
     inkscape:pageshadow="2"
     inkscape:zoom="0.35"
     inkscape:cx="-150"
     inkscape:cy="560"
     inkscape:document-units="mm"
     inkscape:current-layer="layer1"
     showgrid="false"
     inkscape:window-width="1920"
     inkscape:window-height="1017"
     inkscape:window-x="-8"
     inkscape:window-y="-8"
     inkscape:window-maximized="1" />
  <metadata
     id="metadata5">
    <rdf:RDF>
      <cc:Work
         rdf:about="">
        <dc:format>image/svg+xml</dc:format>
        <dc:type
           rdf:resource="http://purl.org/dc/dcmitype/StillImage" />
        <dc:title></dc:title>
      </cc:Work>
    </rdf:RDF>
  </metadata>
  <g
     inkscape:label="Layer 1"
     inkscape:groupmode="layer"
     id="layer1">
    <path
       style="fill:#020202;stroke-width:0.06981137"
       d="m 16.587188,49.860487 c -0.407515,-0.081 -0.957977,-0.39172 -1.217525,-0.68733 -0.118261,-0.13469 -0.296738,-0.41911 -0.396609,-0.63205 l -0.181588,-0.38715 v -14.66038 c 0,-13.998507 0.0057,-14.676848 0.127091,-15.024824 0.168769,-0.483942 0.650735,-1.009859 1.150275,-1.255166 l 0.398108,-0.1955 h 2.513209 2.513208 v 1.850003 1.85 l -1.483493,0.01885 -1.48349,0.01885 v 12.704277 12.70428 H 28.998077 39.469785 V 33.458667 20.752996 H 37.968841 36.467896 V 18.86809 16.983181 h 2.351553 c 2.636231,0 2.871302,0.03133 3.463891,0.461432 0.361172,0.262148 0.706978,0.745369 0.817117,1.141821 0.111672,0.401958 0.08692,29.501213 -0.02536,29.815163 -0.220057,0.61534 -0.740872,1.13516 -1.384989,1.38233 -0.274906,0.1055 -1.344445,0.11619 -12.552408,0.1256 -6.73854,0.006 -12.386271,-0.0164 -12.550511,-0.049 z m 5.792776,-9.01578 c -0.04608,-0.0461 -0.08286,-0.17959 -0.08174,-0.2967 0.0025,-0.27618 0.458656,-2.61702 0.521865,-2.67887 0.02656,-0.026 1.841984,-1.86148 4.034271,-4.07887 2.192282,-2.21738 4.019458,-4.0316 4.060386,-4.0316 0.04093,0 0.629615,0.55762 1.30819,1.23915 l 1.233777,1.23915 -4.061864,4.09327 -4.061868,4.09328 -1.296407,0.25248 c -1.433666,0.27922 -1.535714,0.28961 -1.65661,0.16871 z m 10.848263,-10.93985 -1.248586,-1.25004 0.358467,-0.37903 c 0.828643,-0.87616 1.746772,-1.04442 2.598069,-0.4761 0.431217,0.28787 0.697848,0.73861 0.745087,1.25957 0.06058,0.66814 -0.06887,0.99325 -0.631248,1.5853 -0.266628,0.28068 -0.504671,0.51033 -0.528987,0.51033 -0.02429,0 -0.606073,-0.56251 -1.292802,-1.25003 z m -9.534376,-7.763736 c -0.246766,-0.09845 -0.415173,-0.266889 -0.569833,-0.56992 -0.1269,-0.248638 -0.133523,-0.410567 -0.114745,-2.804892 0.01922,-2.452678 0.02503,-2.547868 0.165975,-2.738017 0.08032,-0.108348 0.250757,-0.268258 0.378739,-0.355355 l 0.232695,-0.158359 5.253441,0.01874 c 5.216967,0.0186 5.254813,0.01976 5.450515,0.165655 0.108391,0.08081 0.259898,0.253589 0.33669,0.383963 0.132745,0.225362 0.139624,0.362595 0.139624,2.785156 v 2.548115 l -0.16411,0.263964 c -0.09026,0.14518 -0.285357,0.325814 -0.43354,0.401413 -0.261002,0.133153 -0.429462,0.137314 -5.385896,0.133027 -3.199933,-0.0028 -5.181298,-0.03029 -5.289555,-0.07349 z"
       id="path4496"
       inkscape:connector-curvature="0"
       inkscape:export-xdpi="96"
       inkscape:export-ydpi="96" />
    <path
       style="fill:#000000;stroke-width:0.07909252"
       d="m 60.929763,49.896886 c 0,-0.0596 0.05306,-0.41255 0.117912,-0.78444 0.327229,-1.87646 1.308586,-3.31506 3.061042,-4.48726 0.890562,-0.59569 1.904541,-1.08989 3.70699,-1.80675 0.758574,-0.3017 1.669747,-0.67667 2.02483,-0.83329 1.461047,-0.64439 2.417187,-1.35703 2.836512,-2.11412 l 0.23523,-0.42471 0.02524,-1.7619 0.02524,-1.76188 -0.368088,-0.40941 c -0.625051,-0.69521 -1.541045,-2.80992 -1.541045,-3.55774 0,-0.0938 -0.09589,-0.19002 -0.257051,-0.25799 -0.722679,-0.30482 -1.242659,-1.38882 -1.244767,-2.59497 -0.0011,-0.59307 0.138159,-1.01327 0.440093,-1.3285 0.194036,-0.20258 0.19455,-0.20716 0.07556,-0.67229 -0.439795,-1.71914 -0.652367,-3.83562 -0.525201,-5.22916 0.363298,-3.98114 2.623753,-6.00615 6.9747,-6.24826 1.777532,-0.0989 3.221241,0.29783 4.027768,1.10685 0.290226,0.29112 0.4508,0.38065 0.870019,0.48507 1.459557,0.36355 2.450635,1.30986 2.959536,2.82585 0.550223,1.63909 0.426944,4.35881 -0.313117,6.90771 l -0.183709,0.63274 0.182646,0.19773 c 0.412759,0.44685 0.543271,0.97261 0.435355,1.7538 -0.147318,1.06643 -0.628277,1.90809 -1.235284,2.16172 -0.208923,0.0873 -0.263923,0.15607 -0.265237,0.33167 -0.0057,0.7563 -0.911279,2.84149 -1.550514,3.57007 l -0.370342,0.42212 0.05435,1.70197 c 0.06215,1.94598 0.08663,2.0327 0.781444,2.76736 0.700855,0.74105 1.438021,1.14644 3.876736,2.1319 3.534395,1.42823 4.779978,2.16946 5.879364,3.49876 0.74356,0.89905 1.283332,2.19244 1.420333,3.40336 l 0.05456,0.48227 H 77.035319 c -13.578415,0 -16.105545,-0.017 -16.105545,-0.10828 z"
       id="path4509"
       inkscape:connector-curvature="0"
       inkscape:export-xdpi="96"
       inkscape:export-ydpi="96" />
  </g>
</svg>
